<?xml version="1.0" standalone="no"?>
<!DOCTYPE svg PUBLIC "-//W3C//DTD SVG 20010904//EN"
 "http://www.w3.org/TR/2001/REC-SVG-20010904/DTD/svg10.dtd">
<svg version="1.0" xmlns="http://www.w3.org/2000/svg"
 width="700.000000pt" height="700.000000pt" viewBox="0 0 700.000000 700.000000"
 preserveAspectRatio="xMidYMid meet">
<metadata>
Created by potrace 1.11, written by Peter Selinger 2001-2013
</metadata>
<g transform="translate(0.000000,700.000000) scale(0.100000,-0.100000)"
fill="#000000" stroke="none">
<path d="M999 6996 c-2 -2 -24 -6 -49 -10 -197 -25 -408 -130 -558 -275 -77
-74 -152 -162 -152 -177 0 -4 -6 -15 -14 -23 -22 -24 -82 -149 -105 -216 -29
-87 -41 -137 -49 -207 -9 -81 -9 -4630 0 -4685 41 -242 139 -437 302 -598 116
-116 265 -207 411 -253 70 -21 85 -25 180 -42 28 -5 782 -9 1701 -9 l1651 -1
73 -70 c214 -208 463 -339 760 -401 110 -22 369 -31 475 -16 273 38 486 125
715 291 67 49 236 213 270 263 14 20 31 42 38 49 21 22 107 165 140 234 102
217 144 405 144 650 0 346 -91 621 -301 904 l-66 88 -1 1752 c-1 963 -4 1780
-8 1816 -29 270 -161 520 -367 693 -126 106 -308 196 -448 222 -14 3 -37 8
-51 12 -25 8 -4683 17 -4691 9z"/>
</g>
</svg>
